<svg width="23" height="23" viewBox="0 0 23 23" fill="none" xmlns="http://www.w3.org/2000/svg">
<path d="M2.06617 10.993L1.07231 10.8823L2.06617 10.993ZM1.00848 20.493L2.00234 20.6036L1.00848 20.493ZM16.9915 20.493L15.9977 20.6036L16.9915 20.493ZM15.9338 10.993L16.9277 10.8823V10.8823L15.9338 10.993ZM1.07231 10.8823L0.0146194 20.3823L2.00234 20.6036L3.06003 11.1036L1.07231 10.8823ZM2.36005 23H15.64V21H2.36005V23ZM17.9854 20.3823L16.9277 10.8823L14.94 11.1036L15.9977 20.6036L17.9854 20.3823ZM14.5823 8.78571H3.41773V10.7857H14.5823V8.78571ZM16.9277 10.8823C16.7946 9.68711 15.7831 8.78571 14.5823 8.78571V10.7857C14.7673 10.7857 14.92 10.9243 14.94 11.1036L16.9277 10.8823ZM15.64 23C17.0443 23 18.1411 21.7809 17.9854 20.3823L15.9977 20.6036C16.021 20.8129 15.8566 21 15.64 21V23ZM0.0146194 20.3823C-0.141092 21.7809 0.955667 23 2.36005 23V21C2.14341 21 1.97904 20.8129 2.00234 20.6036L0.0146194 20.3823ZM3.06003 11.1036C3.08 10.9243 3.23267 10.7857 3.41773 10.7857V8.78571C2.21694 8.78571 1.20538 9.68711 1.07231 10.8823L3.06003 11.1036ZM5.92035 7.75V7.07143H3.92035V7.75H5.92035ZM12.0797 7.07143V7.75H14.0797V7.07143H12.0797ZM9 4C10.7027 4 12.0797 5.37703 12.0797 7.07143H14.0797C14.0797 4.26865 11.8035 2 9 2V4ZM5.92035 7.07143C5.92035 5.37703 7.29725 4 9 4V2C6.19649 2 3.92035 4.26865 3.92035 7.07143H5.92035Z" fill="#2A2A2A"/>
<circle cx="17" cy="6" r="6" fill="#FFFCF6"/>
<circle cx="17" cy="6" r="4" fill="#FF4E02"/>
</svg>
