<svg width="26" height="31" viewBox="0 0 26 31" fill="none" xmlns="http://www.w3.org/2000/svg">
<path d="M3.46598 13.3585L2.17346 13.2192L3.46598 13.3585ZM2.01166 26.8585L3.30418 26.9977L2.01166 26.8585ZM23.9883 26.8585L22.6958 26.9977L23.9883 26.8585ZM22.534 13.3585L23.8265 13.2192V13.2192L22.534 13.3585ZM2.17346 13.2192L0.719136 26.7192L3.30418 26.9977L4.7585 13.4977L2.17346 13.2192ZM3.87006 30.3H22.1299V27.7H3.87006V30.3ZM25.2809 26.7192L23.8265 13.2192L21.2415 13.4977L22.6958 26.9977L25.2809 26.7192ZM20.6756 10.3429H5.32438V12.9429H20.6756V10.3429ZM23.8265 13.2192C23.6536 11.6143 22.3242 10.3429 20.6756 10.3429V12.9429C20.9326 12.9429 21.204 13.1492 21.2415 13.4977L23.8265 13.2192ZM22.1299 30.3C24.0613 30.3 25.482 28.5861 25.2809 26.7192L22.6958 26.9977C22.7409 27.4157 22.4275 27.7 22.1299 27.7V30.3ZM0.719136 26.7192C0.518027 28.5861 1.93875 30.3 3.87006 30.3V27.7C3.57249 27.7 3.25915 27.4157 3.30418 26.9977L0.719136 26.7192ZM4.7585 13.4977C4.79604 13.1492 5.0674 12.9429 5.32438 12.9429V10.3429C3.67581 10.3429 2.34635 11.6143 2.17346 13.2192L4.7585 13.4977ZM8.69048 8.75V7.78571H6.09048V8.75H8.69048ZM17.3095 7.78571V8.75H19.9095V7.78571H17.3095ZM13 3.3C15.3425 3.3 17.3095 5.27013 17.3095 7.78571H19.9095C19.9095 3.91057 16.8536 0.7 13 0.7V3.3ZM8.69048 7.78571C8.69048 5.27013 10.6575 3.3 13 3.3V0.7C9.14637 0.7 6.09048 3.91057 6.09048 7.78571H8.69048Z" fill="#2A2A2A"/>
</svg>
